# xmcd
#
# Track frame offsets:
# 150
# 24565
# 48005
# 86245
# 108160
# 129220
# 146270
# 182017
# 205870
# 222985
# 246485
# 260240
# 302407
# 319957
#
# Disc length: 4493 seconds
#
#
# Revision: 2
# Processed by: cddbd v1.5.2PL0 Copyright (c) Steve Scherf et al.
# Submitted via: FreeRIP 2.96 
#
DISCID=c5118b0e
DTITLE=Blues Traveler - Live OnTheRocks
DYEAR=2003
DGENRE=Blues
TTITLE0=Carolina Blues [Live, Red Rocks Amphitheatre, Denver, Colorado, 4 July 2003]
TTITLE1=Lost Me There [Live, Red Rocks Amphitheatre, Denver, Colorado, 4 July 2003]
TTITLE2=No Woman No Cry [Live, Red Rocks Amphitheatre, Denver, Colorado, 4 July 2003]
TTITLE3=Save His Soul [Live, Red Rocks Amphitheatre, Denver, Colorado, 4 July 2003]
TTITLE4=Hook [Live, Red Rocks Amphitheatre, Denver, Colorado, 4 July 2003]
TTITLE5=Let Her And Let Go [Live, Red Rocks Amphitheatre, Denver, Colorado, 4 July 2003]
TTITLE6=Support Your Local Emperor [Live, Red Rocks Amphitheatre, Denver, Colorado, 4 July 2003]
TTITLE7=This Ache [Live, Red Rocks Amphitheatre, Denver, Colorado, 4 July 2003]
TTITLE8=Eventually [Live, Red Rocks Amphitheatre, Denver, Colorado, 4 July 2003]
TTITLE9=Unable [Live, Red Rocks Amphitheatre, Denver, Colorado, 4 July 2003]
TTITLE10=Can't See Why [Live, Red Rocks Amphitheatre, Denver, Colorado, 4 July 2003]
TTITLE11=You Reach Me [Live, Red Rocks Amphitheatre, Denver, Colorado, 4 July 2003]
TTITLE12=Crashburn [Live, Red Rocks Amphitheatre, Denver, Colorado, 4 July 2003]
TTITLE13=Thinnest Of Air [Live, Red Rocks Amphitheatre, Denver, Colorado, 4 July 2003]
EXTD=
EXTT0=
EXTT1=
EXTT2=
EXTT3=
EXTT4=
EXTT5=
EXTT6=
EXTT7=
EXTT8=
EXTT9=
EXTT10=
EXTT11=
EXTT12=
EXTT13=
PLAYORDER=
